<?xml version="1.0" encoding="UTF-8"?>
<svg id="Layer_1" data-name="Layer 1" xmlns="http://www.w3.org/2000/svg" viewBox="0 0 345.93 209.35">
  <defs>
    <style>
      .cls-1 {
        fill: #fff;
      }

      .cls-2 {
        stroke-linecap: round;
      }

      .cls-2, .cls-3 {
        fill: none;
        stroke: #fff;
        stroke-miterlimit: 10;
        stroke-width: 4px;
      }
    </style>
  </defs>
  <g>
    <path class="cls-3" d="M196.39,172.18c-5.56,.9-8.38-3.03-11.43-6.53-2.29-2.62-4.39-5.42-6.81-7.92-3.8-3.94-8.48-4.18-12.92-.88-3.24,2.41-5.56,5.69-8.04,8.8-2.52,3.16-5.39,5.44-9.79,4.41-3.32-2.37-3.05-5.98-3.35-9.44-.73-8.61-3.08-10-10.85-6.36-3,1.4-5.76,3.37-8.82,4.59-5.84,2.32-8.75-.19-7.57-6.36,.98-5.12,3.08-9.91,5.85-14.22,10.91-16.94,13.66-36.1,15.78-55.51,1.43-13.03,.3-26.34,4.07-39.11,2.54-8.6,6.71-16.25,13.91-21.93,9.12-7.19,20.3-7.01,29.17,.58,10.57,9.04,14.8,21.26,15.56,34.5,1.55,27.12,8.76,52.59,20.45,76.96,1.79,3.74,3.33,7.61,4.86,11.47,.95,2.39,1.33,4.88-.69,7-2.24,2.35-5.02,2.45-7.85,1.45-1.54-.54-2.99-1.42-4.41-2.26-5.36-3.17-7.95-2.14-8.99,3.97-.59,3.47-1.42,6.84-2.58,10.14-1.02,2.89-2.47,5.47-5.57,6.64Z"/>
    <path class="cls-1" d="M152.95,59.08c.2-4.19,.59-7.8,3.21-10.72,2.22-2.48,4-2,5.22,.89,2.04,4.83,.63,9.46-1.21,13.94-.67,1.63-1.85,3.38-4.08,3-2.2-.38-2.62-2.29-2.88-4.14-.16-1.14-.2-2.31-.26-2.96Z"/>
    <path class="cls-1" d="M183.79,59.51c0,.17,.01,.33,0,.5-.2,2.77,.23,6.41-3.2,7.02-3.67,.65-4.17-3.28-5.05-5.72-1.19-3.27-1.47-6.8-.35-10.27,.48-1.48,1.07-2.94,2.74-3.22,1.95-.33,2.92,1.09,3.81,2.58,1.68,2.83,2.05,5.92,2.04,9.11Z"/>
  </g>
  <polyline class="cls-2" points="8.77 186.55 19.25 186.55 334.62 186.55"/>
  <line class="cls-2" x1="19.25" y1="177.55" x2="19.25" y2="186.55"/>
  <line class="cls-2" x1="71.83" y1="177.55" x2="71.83" y2="186.55"/>
  <line class="cls-2" x1="121.12" y1="177.55" x2="121.12" y2="186.55"/>
  <line class="cls-2" x1="173.7" y1="177.55" x2="173.7" y2="186.55"/>
  <line class="cls-2" x1="220.95" y1="177.55" x2="220.95" y2="186.55"/>
  <line class="cls-2" x1="273.53" y1="177.55" x2="273.53" y2="186.55"/>
  <line class="cls-2" x1="322.82" y1="177.55" x2="322.82" y2="186.55"/>
</svg>